# xmcd
#
# Track frame offsets:
#	150
#	14506
#	30883
#	41501
#	55669
#	68542
#	85021
#	98660
#	118238
#	127619
#	142555
#	152711
#	164677
#	177748
#
# Disc length: 2515 seconds
#
# Revision: 1
# Processed by: cddbd v1.5.2PL0 Copyright (c) Steve Scherf et al.
# Submitted via: audiograbber 1.83.01
#
DISCID=a409d10e
DTITLE=MED - Classic
DYEAR=2011
DGENRE=HipHop
TTITLE0=INT´L
TTITLE1=Where I'm From (feat. Aloe Blacc) 
TTITLE2=Too Late 
TTITLE3=War and Love (feat. Oh No) 
TTITLE4=Classic (feat. Talib Kweli) 
TTITLE5=Get That (feat. Pok) 
TTITLE6=JWF
TTITLE7=Roll Out (feat. Planet Asia and Kurupt)
TTITLE8=Blaxican 
TTITLE9=Outta Control (feat. Hodgy Beats) 
TTITLE10=Outta Control (feat. Hodgy Beats) 
TTITLE11=MEDical Card 
TTITLE12=1 Life 2 Live 
TTITLE13=Mystical Magical 
EXTD=
EXTT0=
EXTT1=
EXTT2=
EXTT3=
EXTT4=
EXTT5=
EXTT6=
EXTT7=
EXTT8=
EXTT9=
EXTT10=
EXTT11=
EXTT12=
EXTT13=
PLAYORDER=
